<?xml version="1.0" encoding="UTF-8" standalone="no"?>
<svg width="366px" height="373px" viewBox="0 0 366 373" version="1.1" xmlns="http://www.w3.org/2000/svg" xmlns:xlink="http://www.w3.org/1999/xlink" xmlns:sketch="http://www.bohemiancoding.com/sketch/ns">
    <!-- Generator: Sketch 3.3.2 (12043) - http://www.bohemiancoding.com/sketch -->
    <title>Group</title>
    <desc>Created with Sketch.</desc>
    <defs></defs>
    <g id="Welcome" stroke="none" stroke-width="1" fill="none" fill-rule="evenodd" sketch:type="MSPage">
        <g id="Group" sketch:type="MSLayerGroup" fill="#FFFFFF">
            <path d="M125.9,10.2 C80.6,25.7 42,59.6 20.5,102.5 C13,117.3 7.6,133 4.3,149.3 C-3.9,189.7 1.8,232.8 20.4,269.6 C32.5,293.6 49.9,315 70.9,331.7 C90.8,347.5 113.9,359.3 138.5,365.8 C169.5,374.1 202.5,373.9 233.7,366.8 C261.9,360.3 288.6,346.8 309.9,327.2 C332.4,306.5 348.5,279.3 357,250 C366.3,218.1 367.5,184 361.7,151.2 L186.7,151.2 L186.7,223.8 L288.1,223.8 C284.2,247 270.4,268.2 250.9,281.3 C238.6,289.6 224.5,294.9 209.9,297.5 C195.3,300 180.1,300.3 165.5,297.4 C150.6,294.4 136.5,288.2 124.1,279.5 C104.3,265.6 89.2,245.3 81.5,222.4 C73.6,199.1 73.5,173.2 81.5,150 C87.1,133.6 96.3,118.5 108.5,106.1 C123.5,90.7 143,79.7 164.1,75.2 C182.1,71.4 201.1,72.1 218.7,77.4 C233.7,81.9 247.5,90.2 258.8,101 C270.2,89.6 281.6,78.2 293,66.8 C299,60.7 305.3,54.8 311.1,48.5 C293.8,32.5 273.4,19.6 251.2,11.4 C211.2,-3.4 166.2,-3.7 125.9,10.2 L125.9,10.2 Z" id="Shape" sketch:type="MSShapeGroup"></path>
            <path d="M125.9,10.2 C166.1,-3.7 211.2,-3.4 251.2,11.3 C273.4,19.5 293.7,32.3 311.1,48.4 C305.3,54.7 299,60.6 293,66.7 C281.6,78.1 270.2,89.5 258.8,100.9 C247.5,90.1 233.7,81.9 218.7,77.3 C201.1,72 182.1,71.2 164.1,75.1 C143.1,79.6 123.6,90.6 108.5,106 C96.3,118.3 87.1,133.5 81.5,149.9 C61.2,134.1 40.9,118.4 20.5,102.6 C42,59.6 80.6,25.7 125.9,10.2 L125.9,10.2 Z" id="Shape" sketch:type="MSShapeGroup"></path>
            <path d="M4.4,149.2 C7.7,133 13.1,117.2 20.6,102.4 C40.9,118.2 61.2,133.9 81.6,149.7 C73.6,173 73.6,198.9 81.6,222.1 C61.3,237.9 41,253.7 20.7,269.4 C1.9,232.7 -3.8,189.6 4.4,149.2 L4.4,149.2 Z" id="Shape" sketch:type="MSShapeGroup"></path>
            <path d="M186.7,151.1 L361.7,151.1 C367.5,183.8 366.2,217.9 357,249.9 C348.5,279.2 332.4,306.4 309.9,327.1 C290.2,311.8 270.5,296.5 250.8,281.2 C270.3,268.1 284.1,246.9 288,223.7 L186.6,223.7 C186.7,199.5 186.7,175.3 186.7,151.1 L186.7,151.1 Z" id="Shape" sketch:type="MSShapeGroup"></path>
            <path d="M20.5,269.5 C40.8,253.8 61.1,238 81.4,222.2 C89.2,245.1 104.2,265.4 124,279.3 C136.4,288 150.6,294.2 165.4,297.2 C180,300.2 195.1,299.8 209.8,297.3 C224.4,294.7 238.5,289.4 250.8,281.1 C270.5,296.4 290.2,311.7 309.9,327 C288.6,346.7 261.9,360.1 233.7,366.6 C202.5,373.7 169.5,373.9 138.5,365.6 C113.9,359.1 90.8,347.4 70.9,331.5 C50,314.9 32.6,293.5 20.5,269.5 L20.5,269.5 Z" id="Shape" sketch:type="MSShapeGroup"></path>
        </g>
    </g>
</svg>