<?xml version="1.0" encoding="utf-8"?>
<!-- Generator: Adobe Illustrator 18.1.1, SVG Export Plug-In . SVG Version: 6.00 Build 0)  -->
<svg version="1.1" id="Layer_1" xmlns="http://www.w3.org/2000/svg" xmlns:xlink="http://www.w3.org/1999/xlink" x="0px" y="0px"
	 width="100px" height="100px" viewBox="0 0 100 100" enable-background="new 0 0 100 100" xml:space="preserve">
<path fill="#FFFFFF" d="M36.02,43.304v17.597h-3.457V42.078L36.02,43.304z"/>
<path fill="#FFFFFF" d="M22.76,41.753c-0.137-4.593,2.286-6.934,5.441-6.934c1.92,0,3.384,0.597,6.493,2.067
	c2.286,1.102,3.978,1.929,5.67,1.929c1.646,0,2.424-1.332,2.469-3.858h2.698c0.228,5.098-2.378,6.935-5.213,6.935
	c-1.829,0-3.475-0.551-6.63-2.021c-2.149-1.057-3.841-2.021-5.487-2.021c-1.646,0-2.652,1.148-2.698,3.903H22.76z"/>
<g>
	<path fill="#FFFFFF" d="M34.557,71.447C20.609,71.447,9.26,60.099,9.26,46.15c0-13.949,11.348-25.297,25.297-25.297
		S59.854,32.201,59.854,46.15C59.854,60.099,48.506,71.447,34.557,71.447z M34.557,22.487c-13.048,0-23.663,10.615-23.663,23.663
		c0,13.048,10.615,23.663,23.663,23.663S58.22,59.198,58.22,46.15C58.22,33.103,47.605,22.487,34.557,22.487z"/>
</g>
<path fill="#FFFFFF" d="M94.058,49.357c-1.253,0-1.875,0.868-2.594,1.872c-0.743,1.037-1.586,2.213-3.259,2.213
	c-1.673,0-2.516-1.176-3.259-2.213c-0.72-1.005-1.341-1.872-2.595-1.872c-1.254,0-1.875,0.868-2.595,1.872
	c-0.743,1.037-1.586,2.213-3.259,2.213s-2.516-1.176-3.259-2.214c-0.719-1.004-1.341-1.872-2.594-1.872
	c-1.254,0-1.875,0.868-2.595,1.872c-0.744,1.038-1.586,2.214-3.26,2.214c-1.673,0-2.515-1.176-3.258-2.213
	c-0.72-1.005-1.341-1.872-2.595-1.872c-1.254,0-1.876,0.868-2.596,1.872c-0.743,1.038-1.586,2.213-3.26,2.213
	c-1.674,0-2.517-1.176-3.261-2.214c-0.72-1.004-1.342-1.872-2.596-1.872V48.54c1.674,0,2.517,1.176,3.26,2.213
	c0.72,1.005,1.342,1.873,2.597,1.873c1.254,0,1.876-0.868,2.596-1.872c0.743-1.038,1.586-2.213,3.26-2.213
	c1.673,0,2.516,1.176,3.259,2.214c0.719,1.004,1.341,1.872,2.594,1.872c1.254,0,1.876-0.868,2.595-1.872
	c0.743-1.038,1.586-2.213,3.259-2.213c1.673,0,2.515,1.176,3.258,2.213c0.72,1.005,1.341,1.872,2.595,1.872s1.875-0.868,2.595-1.872
	c0.743-1.037,1.586-2.213,3.259-2.213s2.516,1.176,3.259,2.213c0.72,1.005,1.341,1.872,2.595,1.872s1.875-0.868,2.594-1.872
	c0.743-1.037,1.586-2.213,3.259-2.213"/>
<path fill="#FFFFFF" d="M94.058,56.711c-1.253,0-1.875,0.868-2.594,1.872c-0.743,1.037-1.586,2.213-3.259,2.213
	c-1.673,0-2.516-1.176-3.259-2.213c-0.72-1.005-1.341-1.872-2.595-1.872c-1.254,0-1.875,0.868-2.595,1.872
	c-0.743,1.037-1.586,2.213-3.259,2.213s-2.516-1.176-3.259-2.214c-0.719-1.004-1.341-1.872-2.594-1.872
	c-1.254,0-1.875,0.868-2.595,1.872c-0.744,1.038-1.586,2.214-3.26,2.214c-1.673,0-2.515-1.176-3.258-2.213
	c-0.72-1.005-1.341-1.872-2.595-1.872c-1.254,0-1.876,0.868-2.596,1.872c-0.743,1.038-1.586,2.213-3.26,2.213
	c-1.674,0-2.517-1.176-3.261-2.214c-0.72-1.004-1.342-1.872-2.596-1.872v-0.817c1.674,0,2.517,1.176,3.26,2.213
	c0.72,1.005,1.342,1.873,2.597,1.873c1.254,0,1.876-0.868,2.596-1.872c0.743-1.038,1.586-2.213,3.26-2.213
	c1.673,0,2.516,1.176,3.259,2.214c0.719,1.004,1.341,1.872,2.594,1.872c1.254,0,1.876-0.868,2.595-1.872
	c0.743-1.038,1.586-2.213,3.259-2.213c1.673,0,2.515,1.176,3.258,2.213c0.72,1.005,1.341,1.872,2.595,1.872s1.875-0.868,2.595-1.872
	c0.743-1.037,1.586-2.213,3.259-2.213s2.516,1.176,3.259,2.213c0.72,1.005,1.341,1.872,2.595,1.872s1.875-0.868,2.594-1.872
	c0.743-1.037,1.586-2.213,3.259-2.213"/>
<path fill="#FFFFFF" d="M94.058,64.065c-1.253,0-1.875,0.868-2.594,1.872c-0.743,1.037-1.586,2.213-3.259,2.213
	c-1.673,0-2.516-1.176-3.259-2.213c-0.72-1.005-1.341-1.872-2.595-1.872c-1.254,0-1.875,0.868-2.595,1.872
	c-0.743,1.037-1.586,2.213-3.259,2.213s-2.516-1.176-3.259-2.214c-0.719-1.004-1.341-1.872-2.594-1.872
	c-1.254,0-1.875,0.868-2.595,1.872c-0.744,1.038-1.586,2.214-3.26,2.214c-1.673,0-2.515-1.176-3.258-2.213
	c-0.72-1.005-1.341-1.872-2.595-1.872c-1.254,0-1.876,0.868-2.596,1.872c-0.743,1.038-1.586,2.213-3.26,2.213
	c-1.674,0-2.517-1.176-3.261-2.214c-0.72-1.004-1.342-1.872-2.596-1.872v-0.817c1.674,0,2.517,1.176,3.26,2.213
	c0.72,1.005,1.342,1.873,2.597,1.873c1.254,0,1.876-0.868,2.596-1.872c0.743-1.038,1.586-2.213,3.26-2.213
	c1.673,0,2.516,1.176,3.259,2.214c0.719,1.004,1.341,1.872,2.594,1.872c1.254,0,1.876-0.868,2.595-1.872
	c0.743-1.038,1.586-2.213,3.259-2.213c1.673,0,2.515,1.176,3.258,2.213c0.72,1.005,1.341,1.872,2.595,1.872s1.875-0.868,2.595-1.872
	c0.743-1.037,1.586-2.213,3.259-2.213s2.516,1.176,3.259,2.213c0.72,1.005,1.341,1.872,2.595,1.872s1.875-0.868,2.594-1.872
	c0.743-1.037,1.586-2.213,3.259-2.213"/>
<path fill="#FFFFFF" d="M94.058,71.42c-1.253,0-1.875,0.868-2.594,1.872c-0.743,1.037-1.586,2.213-3.259,2.213
	c-1.673,0-2.516-1.176-3.259-2.213c-0.72-1.005-1.341-1.872-2.595-1.872c-1.254,0-1.875,0.868-2.595,1.872
	c-0.743,1.037-1.586,2.213-3.259,2.213s-2.516-1.176-3.259-2.214c-0.719-1.004-1.341-1.872-2.594-1.872
	c-1.254,0-1.875,0.868-2.595,1.872c-0.744,1.038-1.586,2.214-3.26,2.214c-1.673,0-2.515-1.176-3.258-2.213
	c-0.72-1.005-1.341-1.872-2.595-1.872c-1.254,0-1.876,0.868-2.596,1.872c-0.743,1.038-1.586,2.213-3.26,2.213
	c-1.674,0-2.517-1.176-3.261-2.214c-0.72-1.004-1.342-1.872-2.596-1.872v-0.817c1.674,0,2.517,1.176,3.26,2.213
	c0.72,1.005,1.342,1.873,2.597,1.873c1.254,0,1.876-0.868,2.596-1.872c0.743-1.038,1.586-2.213,3.26-2.213
	c1.673,0,2.516,1.176,3.259,2.214c0.719,1.004,1.341,1.872,2.594,1.872c1.254,0,1.876-0.868,2.595-1.872
	c0.743-1.038,1.586-2.213,3.259-2.213c1.673,0,2.515,1.176,3.258,2.213c0.72,1.005,1.341,1.872,2.595,1.872s1.875-0.868,2.595-1.872
	c0.743-1.037,1.586-2.213,3.259-2.213s2.516,1.176,3.259,2.213c0.72,1.005,1.341,1.872,2.595,1.872s1.875-0.868,2.594-1.872
	c0.743-1.037,1.586-2.213,3.259-2.213"/>
<path fill="#FFFFFF" d="M94.058,78.774c-1.253,0-1.875,0.868-2.594,1.872c-0.743,1.037-1.586,2.213-3.259,2.213
	c-1.673,0-2.516-1.176-3.259-2.213c-0.72-1.005-1.341-1.872-2.595-1.872c-1.254,0-1.875,0.868-2.595,1.872
	c-0.743,1.037-1.586,2.213-3.259,2.213s-2.516-1.176-3.259-2.214c-0.719-1.004-1.341-1.872-2.594-1.872
	c-1.254,0-1.875,0.868-2.595,1.872c-0.744,1.038-1.586,2.214-3.26,2.214c-1.673,0-2.515-1.176-3.258-2.213
	c-0.72-1.005-1.341-1.872-2.595-1.872c-1.254,0-1.876,0.868-2.596,1.872c-0.743,1.038-1.586,2.213-3.26,2.213
	c-1.674,0-2.517-1.176-3.261-2.214c-0.72-1.004-1.342-1.872-2.596-1.872v-0.817c1.674,0,2.517,1.176,3.26,2.213
	c0.72,1.005,1.342,1.873,2.597,1.873c1.254,0,1.876-0.868,2.596-1.872c0.743-1.038,1.586-2.213,3.26-2.213
	c1.673,0,2.516,1.176,3.259,2.214c0.719,1.004,1.341,1.872,2.594,1.872c1.254,0,1.876-0.868,2.595-1.872
	c0.743-1.038,1.586-2.213,3.259-2.213c1.673,0,2.515,1.176,3.258,2.213c0.72,1.005,1.341,1.872,2.595,1.872s1.875-0.868,2.595-1.872
	c0.743-1.037,1.586-2.213,3.259-2.213s2.516,1.176,3.259,2.213c0.72,1.005,1.341,1.872,2.595,1.872s1.875-0.868,2.594-1.872
	c0.743-1.037,1.586-2.213,3.259-2.213"/>
<g>
	<path fill="#FFFFFF" d="M0-5"/>
	<path fill="none" stroke="#000000" stroke-width="2" stroke-miterlimit="10" d="M0-5"/>
</g>
<g>
	<path fill="#FFFFFF" d="M0-5"/>
	<path fill="none" stroke="#000000" stroke-width="2" stroke-miterlimit="10" d="M0-5"/>
</g>
<g>
	<path fill="#FFFFFF" d="M0-5"/>
	<path fill="none" stroke="#000000" stroke-width="2" stroke-miterlimit="10" d="M0-5"/>
</g>
<g>
	<path fill="#FFFFFF" d="M0-5"/>
	<path fill="none" stroke="#000000" stroke-width="2" stroke-miterlimit="10" d="M0-5"/>
</g>
</svg>
