<?xml version="1.0" encoding="utf-8"?>
<!-- Generator: Adobe Illustrator 18.1.1, SVG Export Plug-In . SVG Version: 6.00 Build 0)  -->
<svg version="1.1" id="Layer_1" xmlns="http://www.w3.org/2000/svg" xmlns:xlink="http://www.w3.org/1999/xlink" x="0px" y="0px"
	 width="27.583px" height="20px" viewBox="0 0 27.583 20" enable-background="new 0 0 27.583 20" xml:space="preserve">
<path fill="#FFFFFF" d="M23.877,2.277c-0.835,0.496-1.759,0.857-2.744,1.05c-0.787-0.841-1.91-1.366-3.153-1.366
	c-2.385,0-4.32,1.935-4.32,4.322c0,0.339,0.038,0.667,0.111,0.984c-3.59-0.181-6.774-1.9-8.905-4.514
	C4.494,3.39,4.28,4.134,4.28,4.926c0,1.498,0.763,2.821,1.922,3.595C5.495,8.498,4.828,8.303,4.245,7.98v0.055
	c0,2.092,1.489,3.839,3.466,4.237c-0.363,0.099-0.744,0.152-1.139,0.152c-0.279,0-0.55-0.028-0.813-0.077
	c0.551,1.716,2.146,2.965,4.036,3.001c-1.479,1.159-3.341,1.848-5.365,1.848c-0.349,0-0.693-0.019-1.03-0.06
	c1.912,1.226,4.183,1.94,6.622,1.94c7.948,0,12.293-6.582,12.293-12.293c0-0.186-0.003-0.374-0.012-0.559
	c0.844-0.608,1.577-1.37,2.155-2.235c-0.774,0.344-1.607,0.575-2.48,0.679C22.869,4.134,23.554,3.288,23.877,2.277"/>
</svg>
