<?xml version="1.0" encoding="utf-8"?>
<!-- Generator: Adobe Illustrator 18.1.1, SVG Export Plug-In . SVG Version: 6.00 Build 0)  -->
<svg version="1.1" id="Layer_1" xmlns="http://www.w3.org/2000/svg" xmlns:xlink="http://www.w3.org/1999/xlink" x="0px" y="0px"
	 width="27.583px" height="20px" viewBox="0 0 27.583 20" enable-background="new 0 0 27.583 20" xml:space="preserve">
<path fill="#FFFFFF" d="M13.494,18.802h1.649c0,0,0.496-0.055,0.752-0.329c0.233-0.252,0.227-0.725,0.227-0.725
	s-0.033-2.212,0.994-2.537c1.012-0.321,2.312,2.138,3.69,3.084c1.041,0.716,1.833,0.558,1.833,0.558l3.684-0.051
	c0,0,1.927-0.119,1.013-1.634c-0.075-0.123-0.532-1.12-2.739-3.169c-2.309-2.143-2-1.797,0.784-5.505
	c1.695-2.258,2.37-3.637,2.159-4.228c-0.202-0.561-1.448-0.413-1.448-0.413l-4.147,0.025c0,0-0.307-0.042-0.537,0.095
	c-0.223,0.133-0.366,0.444-0.366,0.444s-0.657,1.748-1.531,3.235c-1.847,3.135-2.587,3.302-2.888,3.106
	c-0.702-0.453-0.527-1.822-0.527-2.796c0-3.04,0.461-4.306-0.897-4.635c-0.451-0.109-0.783-0.181-1.937-0.192
	c-1.48-0.016-2.733,0.004-3.442,0.352C9.351,3.718,8.986,4.233,9.21,4.263c0.273,0.037,0.894,0.167,1.224,0.616
	c0.425,0.578,0.41,1.876,0.41,1.876s0.244,3.578-0.571,4.022c-0.558,0.304-1.325-0.317-2.973-3.163
	C6.457,6.157,5.819,4.546,5.819,4.546S5.696,4.245,5.478,4.084C5.212,3.889,4.84,3.825,4.84,3.825L0.899,3.851
	c0,0-0.591,0.017-0.81,0.274c-0.192,0.229-0.016,0.702-0.016,0.702s3.086,7.219,6.581,10.857
	C9.857,19.021,13.494,18.802,13.494,18.802"/>
</svg>
